Coordinates
version=1
nRows=20
nColumns=38
inDegrees=no

Units are S.I. units (second, meters, Newtons, ...)
If the header above contains a line with 'inDegrees', this indicates whether rotational values are in degrees (yes) or radians (no).

endheader
time	pelvis_tilt	pelvis_list	pelvis_rotation	pelvis_tx	pelvis_ty	pelvis_tz	hip_flexion_r	hip_adduction_r	hip_rotation_r	knee_angle_r	ankle_angle_r	subtalar_angle_r	mtp_angle_r	hip_flexion_l	hip_adduction_l	hip_rotation_l	knee_angle_l	ankle_angle_l	subtalar_angle_l	mtp_angle_l	lumbar_extension	lumbar_bending	lumbar_rotation	arm_flex_r	arm_add_r	arm_rot_r	elbow_flex_r	pro_sup_r	wrist_flex_r	wrist_dev_r	arm_flex_l	arm_add_l	arm_rot_l	elbow_flex_l	pro_sup_l	wrist_flex_l	wrist_dev_l
0	0.104138	1.33158	1.62509	0.583693	0.526645	1.00046	0.707775	0.000286675	0.0853309	0.254104	0.0653311	0	0	0.0773028	-0.0423538	-0.217091	0.517767	0.206289	0	0	0.249718	0.0319653	-0.248403	-0.246762	-0.248051	1.1632	0.278084	0.751721	0	0	0.1005	-0.440169	0.425294	0.512528	1.43866	0	0
0.01	0.128146	1.33272	1.61097	0.582504	0.537934	0.999773	0.700278	0.000905036	0.10077	0.251083	0.0587656	0	0	0.071265	-0.0503798	-0.207127	0.526621	0.202705	0	0	0.251932	0.0399071	-0.254771	-0.248766	-0.245921	1.16609	0.273088	0.747496	0	0	0.103894	-0.434677	0.430496	0.505338	1.43966	0	0
0.02	0.151572	1.33221	1.59593	0.581379	0.550069	0.998974	0.698726	0.00252855	0.108679	0.264188	0.0519921	0	0	0.0660818	-0.0591924	-0.201514	0.535399	0.19658	0	0	0.254994	0.0493254	-0.262058	-0.250171	-0.245185	1.16895	0.268188	0.741661	0	0	0.101604	-0.429982	0.43307	0.502391	1.43894	0	0
0.03	0.172585	1.32957	1.58257	0.580336	0.562618	0.998013	0.702298	0.00469702	0.113342	0.291045	0.0498219	0	0	0.0636004	-0.0677938	-0.196712	0.545713	0.187619	0	0	0.260544	0.0584595	-0.268977	-0.251471	-0.245624	1.17406	0.26438	0.733708	0	0	0.0957041	-0.425708	0.434173	0.50252	1.43638	0	0
0.04	0.192496	1.32661	1.57019	0.579352	0.575599	0.99709	0.706579	0.00725771	0.114216	0.324582	0.052811	0	0	0.0615037	-0.0764201	-0.191814	0.556382	0.177637	0	0	0.266974	0.0672608	-0.275503	-0.252826	-0.246928	1.18138	0.261629	0.725453	0	0	0.0877514	-0.421528	0.435698	0.504115	1.43327	0	0
0.05	0.212722	1.32423	1.55753	0.578391	0.588953	0.996339	0.708607	0.0102367	0.110765	0.357546	0.0540146	0	0	0.0594559	-0.0854934	-0.18655	0.568524	0.166755	0	0	0.273313	0.0760742	-0.281626	-0.254247	-0.248817	1.1883	0.25959	0.717935	0	0	0.0789324	-0.416913	0.438026	0.505606	1.43075	0	0
0.06	0.233575	1.32101	1.54303	0.577528	0.602479	0.995721	0.708727	0.0141615	0.106739	0.381956	0.0488622	0	0	0.0594399	-0.0948782	-0.180531	0.5829	0.154963	0	0	0.280802	0.0855167	-0.286229	-0.255649	-0.251068	1.19312	0.257643	0.711878	0	0	0.0699638	-0.411154	0.441252	0.505544	1.4297	0	0
0.07	0.256461	1.31562	1.52419	0.576893	0.615973	0.995228	0.708945	0.0192166	0.104555	0.394155	0.038432	0	0	0.0634807	-0.104974	-0.174141	0.600583	0.141499	0	0	0.290589	0.0964706	-0.288642	-0.256533	-0.253894	1.19734	0.255709	0.705462	0	0	0.0614044	-0.403738	0.445774	0.502624	1.42918	0	0
0.08	0.281652	1.31069	1.50036	0.576508	0.629495	0.995114	0.707563	0.0254647	0.102071	0.398307	0.0267076	0	0	0.0683962	-0.115872	-0.168941	0.620952	0.127302	0	0	0.299152	0.109185	-0.288703	-0.256174	-0.25708	1.20031	0.253594	0.699811	0	0	0.0533278	-0.395097	0.45056	0.497713	1.42974	0	0
0.09	0.308037	1.30687	1.47286	0.576393	0.643151	0.995405	0.704975	0.0335884	0.0957766	0.402996	0.00794184	0	0	0.0737283	-0.127358	-0.164976	0.644798	0.110343	0	0	0.305769	0.123032	-0.286644	-0.254531	-0.260424	1.20322	0.251281	0.693839	0	0	0.0451876	-0.38582	0.45544	0.491748	1.43071	0	0
0.1	0.332402	1.30396	1.44472	0.576568	0.656895	0.996014	0.702187	0.0433199	0.0867198	0.410818	-0.0170664	0	0	0.0798259	-0.138319	-0.161694	0.672065	0.0898215	0	0	0.310577	0.137051	-0.281846	-0.251692	-0.263879	1.20665	0.249048	0.686157	0	0	0.0369656	-0.376399	0.460774	0.485289	1.43125	0	0
0.11	0.352629	1.3025	1.41844	0.576953	0.670629	0.996894	0.699404	0.0532875	0.0756328	0.42278	-0.0349345	0	0	0.0866128	-0.14769	-0.159258	0.702239	0.0674968	0	0	0.312818	0.150322	-0.274413	-0.247483	-0.267407	1.21012	0.24713	0.678658	0	0	0.0284404	-0.367235	0.465805	0.479584	1.4308	0	0
0.12	0.367764	1.30216	1.39527	0.577516	0.68428	0.997929	0.696176	0.0632267	0.067056	0.436545	-0.044919	0	0	0.0946464	-0.155012	-0.156709	0.73438	0.0408915	0	0	0.312914	0.16238	-0.26429	-0.241889	-0.271133	1.21463	0.245815	0.671409	0	0	0.0197557	-0.358632	0.471307	0.474973	1.42854	0	0
0.13	0.379246	1.30197	1.37518	0.578295	0.697872	0.998987	0.692377	0.0732851	0.0623226	0.451	-0.0492659	0	0	0.105491	-0.160724	-0.151403	0.768595	0.0106678	0	0	0.312448	0.172859	-0.25317	-0.2351	-0.274632	1.22117	0.24465	0.66655	0	0	0.0101522	-0.351133	0.477238	0.472053	1.42445	0	0
0.14	0.387467	1.30262	1.35804	0.579145	0.711188	1.00006	0.687232	0.0828105	0.0593728	0.466275	-0.048814	0	0	0.118775	-0.16425	-0.142568	0.805339	-0.0214205	0	0	0.309956	0.181926	-0.240939	-0.22648	-0.277939	1.22867	0.243637	0.664539	0	0	0.000694684	-0.34455	0.483403	0.470773	1.4187	0	0
0.15	0.396512	1.30377	1.34137	0.580009	0.724141	1.00118	0.680313	0.0915303	0.0548417	0.479669	-0.0452701	0	0	0.134974	-0.166804	-0.129203	0.844785	-0.0535049	0	0	0.305946	0.190175	-0.229434	-0.216016	-0.28098	1.23632	0.242675	0.664815	0	0	-0.00792545	-0.338651	0.490471	0.469935	1.41172	0	0
0.16	0.406551	1.30483	1.32477	0.58094	0.736756	1.00227	0.67189	0.0999544	0.0493336	0.489336	-0.0413578	0	0	0.154183	-0.168838	-0.1126	0.886982	-0.0823106	0	0	0.301279	0.197719	-0.21842	-0.20414	-0.283832	1.24304	0.242074	0.666542	0	0	-0.0154418	-0.333282	0.498926	0.468809	1.40414	0	0
0.17	0.414944	1.3057	1.31058	0.581938	0.749038	1.00331	0.66255	0.107872	0.0449151	0.495893	-0.0368646	0	0	0.176357	-0.169589	-0.0933583	0.931691	-0.10755	0	0	0.296423	0.203878	-0.207482	-0.191235	-0.286333	1.24804	0.241835	0.669119	0	0	-0.0219597	-0.328473	0.508566	0.467423	1.3958	0	0
0.18	0.420919	1.30666	1.29966	0.58287	0.760987	1.00434	0.652489	0.11487	0.0418108	0.500939	-0.0304541	0	0	0.200943	-0.168297	-0.0714266	0.977864	-0.132944	0	0	0.291317	0.208471	-0.196627	-0.177454	-0.288856	1.25058	0.2424	0.671881	0	0	-0.0273118	-0.323967	0.519546	0.465239	1.38744	0	0
0.19	0.425468	1.30809	1.29104	0.583689	0.772711	1.00548	0.641265	0.120887	0.0400374	0.505531	-0.0214829	0	0	0.226928	-0.165305	-0.0482128	1.02392	-0.161376	0	0	0.285906	0.211739	-0.185875	-0.163161	-0.291622	1.24965	0.243974	0.67388	0	0	-0.0314414	-0.319359	0.532136	0.461599	1.38013	0	0
